<svg width="319" height="46" viewBox="0 0 319 46" fill="none" xmlns="http://www.w3.org/2000/svg">
<g clip-path="url(#clip0_3_2)">
<path d="M44.4 8H15.6C14.7163 8 14 8.80589 14 9.8V15.2C14 16.1941 14.7163 17 15.6 17H44.4C45.2837 17 46 16.1941 46 15.2V9.8C46 8.80589 45.2837 8 44.4 8Z" stroke="currentColor" stroke-width="3" stroke-linecap="round" stroke-linejoin="round"/>
<path d="M19 17V33.9231C19 34.7391 19.2897 35.5218 19.8055 36.0988C20.3212 36.6758 21.0207 37 21.75 37H38.25C38.9793 37 39.6788 36.6758 40.1945 36.0988C40.7103 35.5218 41 34.7391 41 33.9231V17" stroke="currentColor" stroke-width="3" stroke-linecap="round" stroke-linejoin="round"/>
<path d="M25 27L35 27" stroke="currentColor" stroke-width="3" stroke-linecap="round" stroke-linejoin="round"/>
<path d="M30 22V32" stroke="currentColor" stroke-width="3" stroke-linecap="round" stroke-linejoin="round"/>
<path d="M53.9595 36V13.4545H62.9865C64.6451 13.4545 66.0285 13.7004 67.1367 14.1921C68.2449 14.6838 69.0779 15.3664 69.6357 16.2397C70.1934 17.1057 70.4723 18.1038 70.4723 19.234C70.4723 20.1147 70.2962 20.889 69.9439 21.5568C69.5916 22.2173 69.1072 22.7604 68.4908 23.1861C67.8816 23.6044 67.1844 23.9016 66.3991 24.0778V24.2979C67.2578 24.3346 68.0614 24.5768 68.81 25.0245C69.5659 25.4722 70.1787 26.0997 70.6484 26.907C71.1181 27.7069 71.353 28.661 71.353 29.7692C71.353 30.9654 71.0558 32.0333 70.4613 32.9727C69.8742 33.9047 69.0045 34.6423 67.8523 35.1854C66.7 35.7285 65.2799 36 63.592 36H53.9595ZM58.7262 32.103H62.6122C63.9406 32.103 64.9093 31.8498 65.5185 31.3434C66.1276 30.8297 66.4322 30.1471 66.4322 29.2958C66.4322 28.672 66.2817 28.1216 65.9808 27.6445C65.6799 27.1675 65.2506 26.7932 64.6928 26.5217C64.1424 26.2501 63.4856 26.1143 62.7223 26.1143H58.7262V32.103ZM58.7262 22.8888H62.2599C62.9131 22.8888 63.4929 22.7751 63.9993 22.5476C64.513 22.3127 64.9167 21.9825 65.2102 21.5568C65.5111 21.1312 65.6616 20.6211 65.6616 20.0266C65.6616 19.212 65.3717 18.5552 64.7919 18.0561C64.2195 17.5571 63.4048 17.3075 62.348 17.3075H58.7262V22.8888ZM82.0725 36.3303C80.3332 36.3303 78.836 35.978 77.5811 35.2734C76.3334 34.5616 75.372 33.5561 74.6968 32.2571C74.0216 30.9508 73.684 29.4059 73.684 27.6225C73.684 25.8832 74.0216 24.3567 74.6968 23.043C75.372 21.7293 76.3224 20.7055 77.548 19.9716C78.781 19.2377 80.2268 18.8707 81.8854 18.8707C83.0009 18.8707 84.0394 19.0505 85.0008 19.4102C85.9695 19.7624 86.8135 20.2945 87.5328 21.0064C88.2593 21.7183 88.8244 22.6136 89.2281 23.6925C89.6317 24.764 89.8335 26.0189 89.8335 27.4574V28.7454H75.5555V25.8391H85.4191C85.4191 25.1639 85.2723 24.5658 84.9788 24.0447C84.6852 23.5237 84.2779 23.1164 83.7568 22.8228C83.2431 22.5219 82.645 22.3714 81.9624 22.3714C81.2506 22.3714 80.6194 22.5366 80.069 22.8668C79.5259 23.1897 79.1002 23.6264 78.792 24.1768C78.4838 24.7199 78.326 25.3254 78.3186 25.9933V28.7564C78.3186 29.593 78.4727 30.3159 78.781 30.9251C79.0966 31.5342 79.5406 32.0039 80.113 32.3342C80.6855 32.6644 81.3643 32.8295 82.1496 32.8295C82.6707 32.8295 83.1477 32.7562 83.5807 32.6094C84.0137 32.4626 84.3843 32.2424 84.6926 31.9489C85.0008 31.6553 85.2356 31.2957 85.3971 30.87L89.7345 31.1562C89.5143 32.1984 89.0629 33.1084 88.3804 33.8864C87.7052 34.657 86.8319 35.2588 85.7604 35.6918C84.6962 36.1174 83.4669 36.3303 82.0725 36.3303ZM101.888 19.0909V22.6136H91.705V19.0909H101.888ZM94.0168 15.0398H98.7064V30.804C98.7064 31.237 98.7725 31.5746 98.9046 31.8168C99.0367 32.0516 99.2201 32.2167 99.455 32.3121C99.6972 32.4076 99.9761 32.4553 100.292 32.4553C100.512 32.4553 100.732 32.4369 100.952 32.4002C101.172 32.3562 101.341 32.3232 101.459 32.3011L102.196 35.7908C101.961 35.8642 101.631 35.9486 101.205 36.044C100.78 36.1468 100.262 36.2092 99.6531 36.2312C98.5229 36.2752 97.5322 36.1248 96.6808 35.7798C95.8369 35.4349 95.18 34.8991 94.7103 34.1726C94.2406 33.446 94.0094 32.5286 94.0168 31.4205V15.0398ZM113.937 19.0909V22.6136H103.754V19.0909H113.937ZM106.066 15.0398H110.755V30.804C110.755 31.237 110.821 31.5746 110.953 31.8168C111.085 32.0516 111.269 32.2167 111.504 32.3121C111.746 32.4076 112.025 32.4553 112.34 32.4553C112.561 32.4553 112.781 32.4369 113.001 32.4002C113.221 32.3562 113.39 32.3232 113.507 32.3011L114.245 35.7908C114.01 35.8642 113.68 35.9486 113.254 36.044C112.829 36.1468 112.311 36.2092 111.702 36.2312C110.572 36.2752 109.581 36.1248 108.73 35.7798C107.886 35.4349 107.229 34.8991 106.759 34.1726C106.289 33.446 106.058 32.5286 106.066 31.4205V15.0398ZM124.516 36.3303C122.777 36.3303 121.279 35.978 120.024 35.2734C118.777 34.5616 117.815 33.5561 117.14 32.2571C116.465 30.9508 116.127 29.4059 116.127 27.6225C116.127 25.8832 116.465 24.3567 117.14 23.043C117.815 21.7293 118.766 20.7055 119.991 19.9716C121.224 19.2377 122.67 18.8707 124.329 18.8707C125.444 18.8707 126.483 19.0505 127.444 19.4102C128.413 19.7624 129.257 20.2945 129.976 21.0064C130.703 21.7183 131.268 22.6136 131.671 23.6925C132.075 24.764 132.277 26.0189 132.277 27.4574V28.7454H117.999V25.8391H127.862C127.862 25.1639 127.716 24.5658 127.422 24.0447C127.129 23.5237 126.721 23.1164 126.2 22.8228C125.686 22.5219 125.088 22.3714 124.406 22.3714C123.694 22.3714 123.063 22.5366 122.512 22.8668C121.969 23.1897 121.544 23.6264 121.235 24.1768C120.927 24.7199 120.769 25.3254 120.762 25.9933V28.7564C120.762 29.593 120.916 30.3159 121.224 30.9251C121.54 31.5342 121.984 32.0039 122.556 32.3342C123.129 32.6644 123.808 32.8295 124.593 32.8295C125.114 32.8295 125.591 32.7562 126.024 32.6094C126.457 32.4626 126.828 32.2424 127.136 31.9489C127.444 31.6553 127.679 31.2957 127.84 30.87L132.178 31.1562C131.958 32.1984 131.506 33.1084 130.824 33.8864C130.149 34.657 129.275 35.2588 128.204 35.6918C127.14 36.1174 125.91 36.3303 124.516 36.3303ZM135.337 36V19.0909H139.884V22.0412H140.06C140.368 20.9917 140.886 20.1991 141.612 19.6634C142.339 19.1203 143.175 18.8487 144.122 18.8487C144.357 18.8487 144.61 18.8634 144.882 18.8928C145.153 18.9221 145.392 18.9625 145.597 19.0138V23.1751C145.377 23.109 145.072 23.0503 144.684 22.9989C144.295 22.9476 143.939 22.9219 143.616 22.9219C142.926 22.9219 142.309 23.0723 141.766 23.3732C141.23 23.6668 140.805 24.0778 140.489 24.6062C140.181 25.1346 140.027 25.7437 140.027 26.4336V36H135.337ZM155.285 36V13.4545H164.18C165.89 13.4545 167.346 13.7811 168.55 14.4343C169.754 15.0801 170.671 15.9792 171.302 17.1314C171.941 18.2763 172.26 19.5973 172.26 21.0945C172.26 22.5916 171.937 23.9126 171.291 25.0575C170.645 26.2024 169.71 27.0941 168.484 27.7326C167.266 28.3711 165.791 28.6903 164.059 28.6903H158.389V24.8704H163.288C164.205 24.8704 164.961 24.7126 165.556 24.397C166.157 24.0741 166.605 23.6301 166.899 23.065C167.2 22.4925 167.35 21.8357 167.35 21.0945C167.35 20.3459 167.2 19.6927 166.899 19.1349C166.605 18.5698 166.157 18.1332 165.556 17.8249C164.954 17.5094 164.191 17.3516 163.266 17.3516H160.051V36H155.285ZM175.268 36V19.0909H179.814V22.0412H179.991C180.299 20.9917 180.816 20.1991 181.543 19.6634C182.269 19.1203 183.106 18.8487 184.053 18.8487C184.288 18.8487 184.541 18.8634 184.812 18.8928C185.084 18.9221 185.322 18.9625 185.528 19.0138V23.1751C185.308 23.109 185.003 23.0503 184.614 22.9989C184.225 22.9476 183.869 22.9219 183.546 22.9219C182.856 22.9219 182.24 23.0723 181.697 23.3732C181.161 23.6668 180.735 24.0778 180.42 24.6062C180.112 25.1346 179.958 25.7437 179.958 26.4336V36H175.268ZM194.805 36.3303C193.095 36.3303 191.617 35.967 190.369 35.2404C189.129 34.5065 188.171 33.4864 187.496 32.18C186.82 30.8664 186.483 29.3435 186.483 27.6115C186.483 25.8648 186.82 24.3383 187.496 23.032C188.171 21.7183 189.129 20.6982 190.369 19.9716C191.617 19.2377 193.095 18.8707 194.805 18.8707C196.515 18.8707 197.99 19.2377 199.231 19.9716C200.478 20.6982 201.44 21.7183 202.115 23.032C202.79 24.3383 203.128 25.8648 203.128 27.6115C203.128 29.3435 202.79 30.8664 202.115 32.18C201.44 33.4864 200.478 34.5065 199.231 35.2404C197.99 35.967 196.515 36.3303 194.805 36.3303ZM194.827 32.6974C195.605 32.6974 196.255 32.4773 196.776 32.0369C197.297 31.5893 197.69 30.9801 197.954 30.2095C198.225 29.4389 198.361 28.5619 198.361 27.5785C198.361 26.5951 198.225 25.718 197.954 24.9474C197.69 24.1768 197.297 23.5677 196.776 23.12C196.255 22.6723 195.605 22.4485 194.827 22.4485C194.042 22.4485 193.382 22.6723 192.846 23.12C192.317 23.5677 191.917 24.1768 191.646 24.9474C191.382 25.718 191.25 26.5951 191.25 27.5785C191.25 28.5619 191.382 29.4389 191.646 30.2095C191.917 30.9801 192.317 31.5893 192.846 32.0369C193.382 32.4773 194.042 32.6974 194.827 32.6974ZM206.177 42.3409V19.0909H210.801V21.9311H211.01C211.215 21.4761 211.513 21.0137 211.902 20.544C212.298 20.067 212.812 19.6707 213.443 19.3551C214.081 19.0322 214.874 18.8707 215.821 18.8707C217.054 18.8707 218.191 19.1937 219.233 19.8395C220.275 20.478 221.108 21.4431 221.732 22.7347C222.356 24.0191 222.668 25.63 222.668 27.5675C222.668 29.4536 222.363 31.0462 221.754 32.3452C221.152 33.6368 220.33 34.6166 219.288 35.2844C218.253 35.945 217.094 36.2752 215.81 36.2752C214.9 36.2752 214.125 36.1248 213.487 35.8239C212.856 35.523 212.338 35.145 211.935 34.69C211.531 34.2276 211.223 33.7616 211.01 33.2919H210.867V42.3409H206.177ZM210.768 27.5455C210.768 28.5509 210.907 29.4279 211.186 30.1765C211.465 30.9251 211.869 31.5085 212.397 31.9268C212.925 32.3378 213.568 32.5433 214.323 32.5433C215.087 32.5433 215.733 32.3342 216.261 31.9158C216.789 31.4902 217.189 30.9031 217.461 30.1545C217.74 29.3986 217.879 28.5289 217.879 27.5455C217.879 26.5694 217.743 25.7107 217.472 24.9695C217.2 24.2282 216.8 23.6484 216.272 23.2301C215.744 22.8118 215.094 22.6026 214.323 22.6026C213.56 22.6026 212.914 22.8045 212.386 23.2081C211.865 23.6117 211.465 24.1842 211.186 24.9254C210.907 25.6667 210.768 26.54 210.768 27.5455ZM233.5 36.3303C231.761 36.3303 230.264 35.978 229.009 35.2734C227.761 34.5616 226.8 33.5561 226.125 32.2571C225.449 30.9508 225.112 29.4059 225.112 27.6225C225.112 25.8832 225.449 24.3567 226.125 23.043C226.8 21.7293 227.75 20.7055 228.976 19.9716C230.209 19.2377 231.655 18.8707 233.313 18.8707C234.429 18.8707 235.467 19.0505 236.429 19.4102C237.397 19.7624 238.241 20.2945 238.96 21.0064C239.687 21.7183 240.252 22.6136 240.656 23.6925C241.059 24.764 241.261 26.0189 241.261 27.4574V28.7454H226.983V25.8391H236.847C236.847 25.1639 236.7 24.5658 236.407 24.0447C236.113 23.5237 235.706 23.1164 235.185 22.8228C234.671 22.5219 234.073 22.3714 233.39 22.3714C232.678 22.3714 232.047 22.5366 231.497 22.8668C230.954 23.1897 230.528 23.6264 230.22 24.1768C229.911 24.7199 229.754 25.3254 229.746 25.9933V28.7564C229.746 29.593 229.9 30.3159 230.209 30.9251C230.524 31.5342 230.968 32.0039 231.541 32.3342C232.113 32.6644 232.792 32.8295 233.577 32.8295C234.098 32.8295 234.575 32.7562 235.008 32.6094C235.441 32.4626 235.812 32.2424 236.12 31.9489C236.429 31.6553 236.663 31.2957 236.825 30.87L241.162 31.1562C240.942 32.1984 240.491 33.1084 239.808 33.8864C239.133 34.657 238.26 35.2588 237.188 35.6918C236.124 36.1174 234.895 36.3303 233.5 36.3303ZM244.322 36V19.0909H248.868V22.0412H249.044C249.353 20.9917 249.87 20.1991 250.597 19.6634C251.323 19.1203 252.16 18.8487 253.106 18.8487C253.341 18.8487 253.594 18.8634 253.866 18.8928C254.138 18.9221 254.376 18.9625 254.582 19.0138V23.1751C254.361 23.109 254.057 23.0503 253.668 22.9989C253.279 22.9476 252.923 22.9219 252.6 22.9219C251.91 22.9219 251.294 23.0723 250.751 23.3732C250.215 23.6668 249.789 24.0778 249.474 24.6062C249.165 25.1346 249.011 25.7437 249.011 26.4336V36H244.322ZM266.848 19.0909V22.6136H256.665V19.0909H266.848ZM258.977 15.0398H263.666V30.804C263.666 31.237 263.732 31.5746 263.865 31.8168C263.997 32.0516 264.18 32.2167 264.415 32.3121C264.657 32.4076 264.936 32.4553 265.252 32.4553C265.472 32.4553 265.692 32.4369 265.912 32.4002C266.132 32.3562 266.301 32.3232 266.419 32.3011L267.156 35.7908C266.921 35.8642 266.591 35.9486 266.165 36.044C265.74 36.1468 265.222 36.2092 264.613 36.2312C263.483 36.2752 262.492 36.1248 261.641 35.7798C260.797 35.4349 260.14 34.8991 259.67 34.1726C259.201 33.446 258.969 32.5286 258.977 31.4205V15.0398ZM269.903 36V19.0909H274.592V36H269.903ZM272.259 16.9112C271.561 16.9112 270.963 16.68 270.464 16.2177C269.972 15.748 269.727 15.1866 269.727 14.5334C269.727 13.8875 269.972 13.3335 270.464 12.8711C270.963 12.4014 271.561 12.1665 272.259 12.1665C272.956 12.1665 273.55 12.4014 274.042 12.8711C274.541 13.3335 274.79 13.8875 274.79 14.5334C274.79 15.1866 274.541 15.748 274.042 16.2177C273.55 16.68 272.956 16.9112 272.259 16.9112ZM286.055 36.3303C284.316 36.3303 282.818 35.978 281.563 35.2734C280.316 34.5616 279.354 33.5561 278.679 32.2571C278.004 30.9508 277.666 29.4059 277.666 27.6225C277.666 25.8832 278.004 24.3567 278.679 23.043C279.354 21.7293 280.305 20.7055 281.53 19.9716C282.763 19.2377 284.209 18.8707 285.868 18.8707C286.983 18.8707 288.022 19.0505 288.983 19.4102C289.952 19.7624 290.796 20.2945 291.515 21.0064C292.242 21.7183 292.807 22.6136 293.21 23.6925C293.614 24.764 293.816 26.0189 293.816 27.4574V28.7454H279.538V25.8391H289.402C289.402 25.1639 289.255 24.5658 288.961 24.0447C288.668 23.5237 288.26 23.1164 287.739 22.8228C287.226 22.5219 286.627 22.3714 285.945 22.3714C285.233 22.3714 284.602 22.5366 284.051 22.8668C283.508 23.1897 283.083 23.6264 282.774 24.1768C282.466 24.7199 282.308 25.3254 282.301 25.9933V28.7564C282.301 29.593 282.455 30.3159 282.763 30.9251C283.079 31.5342 283.523 32.0039 284.095 32.3342C284.668 32.6644 285.347 32.8295 286.132 32.8295C286.653 32.8295 287.13 32.7562 287.563 32.6094C287.996 32.4626 288.367 32.2424 288.675 31.9489C288.983 31.6553 289.218 31.2957 289.38 30.87L293.717 31.1562C293.497 32.1984 293.045 33.1084 292.363 33.8864C291.688 34.657 290.814 35.2588 289.743 35.6918C288.679 36.1174 287.449 36.3303 286.055 36.3303ZM310.945 23.9126L306.652 24.1768C306.579 23.8099 306.421 23.4796 306.179 23.1861C305.936 22.8852 305.617 22.6467 305.221 22.4705C304.832 22.287 304.366 22.1953 303.823 22.1953C303.096 22.1953 302.483 22.3494 301.984 22.6577C301.485 22.9586 301.236 23.3622 301.236 23.8686C301.236 24.2723 301.397 24.6135 301.72 24.8924C302.043 25.1713 302.597 25.3951 303.382 25.5639L306.443 26.1804C308.087 26.518 309.312 27.0611 310.12 27.8097C310.927 28.5582 311.331 29.5417 311.331 30.7599C311.331 31.8681 311.004 32.8406 310.351 33.6772C309.705 34.5138 308.817 35.167 307.687 35.6367C306.564 36.0991 305.268 36.3303 303.801 36.3303C301.562 36.3303 299.779 35.8642 298.451 34.9322C297.13 33.9928 296.355 32.7158 296.128 31.1012L300.74 30.859C300.88 31.5415 301.217 32.0626 301.753 32.4222C302.289 32.7745 302.975 32.9506 303.812 32.9506C304.634 32.9506 305.294 32.7929 305.793 32.4773C306.3 32.1544 306.556 31.7397 306.564 31.2333C306.556 30.8076 306.377 30.459 306.024 30.1875C305.672 29.9086 305.129 29.6958 304.395 29.549L301.467 28.9656C299.816 28.6353 298.586 28.0629 297.779 27.2482C296.979 26.4336 296.579 25.3951 296.579 24.1328C296.579 23.0466 296.873 22.1109 297.46 21.3256C298.054 20.5404 298.887 19.9349 299.959 19.5092C301.038 19.0836 302.3 18.8707 303.746 18.8707C305.881 18.8707 307.562 19.3221 308.788 20.2248C310.021 21.1275 310.74 22.3568 310.945 23.9126Z" fill="currentColor"/>
</g>
<defs>
<clipPath id="clip0_3_2">
<rect width="319" height="46" fill="currentColor"/>
</clipPath>
</defs>
</svg>
